<svg width="1200" height="520" viewBox="0 0 1200 520" fill="none" xmlns="http://www.w3.org/2000/svg" role="img" aria-labelledby="title desc">
  <title id="title">Navi4All MA Mobile Architecture</title>
  <desc id="desc">Layered architecture diagram showing view, controller, service, DTOs, backend API, and platform services for ma_mobile.</desc>

  <defs>
    <style>
      .title { font: 600 20px/1.2 "Inter", "SF Pro Text", "Segoe UI", sans-serif; fill: #1F262C; }
      .label { font: 600 16px/1.2 "Inter", "SF Pro Text", "Segoe UI", sans-serif; fill: #1F262C; }
      .small { font: 500 14px/1.2 "Inter", "SF Pro Text", "Segoe UI", sans-serif; fill: #1F262C; }
      .muted { fill: #475569; }
      .node-ma { fill: #E0ECFB; stroke: #0F5FBD; stroke-width: 2; }
      .node { fill: #F8FAFC; stroke: #CBD5E1; stroke-width: 2; }
      .node-backend { fill: #FFFFFF; stroke: #3685E2; stroke-width: 2; }
      .line-strong { stroke: #0F5FBD; stroke-width: 2.5; fill: none; }
    </style>
    <marker id="arrow" viewBox="0 0 10 10" refX="9" refY="5" markerWidth="8" markerHeight="8" orient="auto-start-reverse">
      <path d="M 0 0 L 10 5 L 0 10 z" fill="#0F5FBD" />
    </marker>
  </defs>

  <text x="60" y="44" class="title">ma_mobile — App Architecture</text>

  <rect x="60" y="90" width="240" height="84" rx="16" class="node-ma"/>
  <text x="180" y="134" text-anchor="middle" class="label">View Layer</text>
  <text x="180" y="156" text-anchor="middle" class="small muted">lib/view</text>

  <rect x="330" y="90" width="240" height="84" rx="16" class="node-ma"/>
  <text x="450" y="134" text-anchor="middle" class="label">Controller Layer</text>
  <text x="450" y="156" text-anchor="middle" class="small muted">lib/controllers</text>

  <rect x="600" y="90" width="240" height="84" rx="16" class="node-ma"/>
  <text x="720" y="134" text-anchor="middle" class="label">Service Layer</text>
  <text x="720" y="156" text-anchor="middle" class="small muted">lib/services</text>

  <rect x="870" y="90" width="270" height="84" rx="16" class="node"/>
  <text x="1005" y="134" text-anchor="middle" class="label">DTOs</text>
  <text x="1005" y="156" text-anchor="middle" class="small muted">lib/schemas</text>

  <rect x="420" y="250" width="360" height="92" rx="18" class="node-backend"/>
  <text x="600" y="298" text-anchor="middle" class="label">Navi4All Core Backend</text>
  <text x="600" y="320" text-anchor="middle" class="small muted">REST API /v1</text>

  <rect x="390" y="390" width="420" height="92" rx="18" class="node"/>
  <text x="600" y="438" text-anchor="middle" class="label">Routing / Geocoding Engines</text>
  <text x="600" y="460" text-anchor="middle" class="small muted">OpenTripPlanner · Valhalla · Pelias</text>

  <line x1="300" y1="132" x2="330" y2="132" class="line-strong" marker-end="url(#arrow)"/>
  <line x1="570" y1="132" x2="600" y2="132" class="line-strong" marker-end="url(#arrow)"/>
  <line x1="840" y1="132" x2="870" y2="132" class="line-strong" marker-end="url(#arrow)"/>
  <line x1="720" y1="174" x2="600" y2="250" class="line-strong" marker-end="url(#arrow)"/>
  <line x1="600" y1="342" x2="600" y2="390" class="line-strong" marker-end="url(#arrow)"/>
</svg>
