<svg width="1200" height="220" viewBox="0 0 1200 220" fill="none" xmlns="http://www.w3.org/2000/svg">
  <defs>
    <style>
      .title { font: 600 20px/1.2 "Inter", "SF Pro Text", "Segoe UI", sans-serif; fill: #0F172A; }
      .label { font: 600 16px/1.2 "Inter", "SF Pro Text", "Segoe UI", sans-serif; fill: #0F172A; }
      .small { font: 500 14px/1.2 "Inter", "SF Pro Text", "Segoe UI", sans-serif; fill: #0F172A; }
      .muted { fill: #475569; }
      .node { fill: #F8FAFC; stroke: #CBD5E1; stroke-width: 2; }
      .node-backend { fill: #F8FAFC; stroke: #94A3B8; stroke-width: 2; }
      .node-ma { fill: #E0ECFB; stroke: #0F5FBD; stroke-width: 2; }
      .group-apps { fill: #FFEDEB; stroke: #BF1C23; stroke-width: 2; }
      .group-backend { fill: #E0ECFB; stroke: #3685E2; stroke-width: 2; }
      .group-services { fill: #F1F5F9; stroke: #94A3B8; stroke-width: 2; }
      .line { stroke: #94A3B8; stroke-width: 2; }
      .line-strong { stroke: #475569; stroke-width: 2.5; }
      .icon-stroke { stroke: #0F172A; stroke-width: 2; fill: none; }
      .icon-fill { fill: #0F172A; }
    </style>
    <marker id="arrow" viewBox="0 0 10 10" refX="9" refY="5" markerWidth="8" markerHeight="8" orient="auto-start-reverse">
      <path d="M 0 0 L 10 5 L 0 10 z" fill="#475569" />
    </marker>
  </defs>

  <!-- Top row: component groups -->
  <rect x="80" y="66" width="300" height="88" rx="18" class="group-apps"/>
  <text x="230" y="105" text-anchor="middle" class="label">Mobile App</text>
  <text x="230" y="128" text-anchor="middle" class="small muted">Flutter client</text>
  <rect x="104" y="92" width="24" height="40" rx="5" class="icon-stroke"/>
  <circle cx="116" cy="126" r="2.5" class="icon-fill"/>

  <rect x="450" y="66" width="300" height="88" rx="18" class="group-backend"/>
  <text x="600" y="105" text-anchor="middle" class="label">Core Backend</text>
  <text x="600" y="128" text-anchor="middle" class="small muted">Unified APIs</text>
  <rect x="474" y="95" width="30" height="11" rx="2" class="icon-stroke"/>
  <rect x="474" y="113" width="30" height="11" rx="2" class="icon-stroke"/>
  <circle cx="500" cy="100" r="1.7" class="icon-fill"/>
  <circle cx="500" cy="118" r="1.7" class="icon-fill"/>

  <rect x="820" y="66" width="300" height="88" rx="18" class="group-services"/>
  <text x="970" y="105" text-anchor="middle" class="label">Services</text>
  <text x="970" y="128" text-anchor="middle" class="small muted">Routing + Geocoding</text>
  <circle cx="844" cy="106" r="5" class="icon-stroke"/>
  <circle cx="866" cy="98" r="5" class="icon-stroke"/>
  <circle cx="866" cy="122" r="5" class="icon-stroke"/>
  <line x1="849" y1="106" x2="861" y2="100" class="icon-stroke"/>
  <line x1="849" y1="106" x2="861" y2="120" class="icon-stroke"/>

  <!-- Backend subnode removed per request -->

  <!-- Hierarchy lines: group -> children -->
  <!-- Backend hierarchy line removed per request -->

  <!-- Dependency arrows: Apps -> Backend -> Services -->
  <line x1="380" y1="110" x2="450" y2="110" class="line-strong" marker-end="url(#arrow)"/>
  <line x1="750" y1="110" x2="820" y2="110" class="line-strong" marker-end="url(#arrow)"/>

</svg>
